<svg xmlns="http://www.w3.org/2000/svg" width="80" height="80" viewBox="0 0 80 80">
  <defs>
    <pattern id="movie-icons" x="0" y="0" width="40" height="40" patternUnits="userSpaceOnUse">
      <!-- Movie camera icon -->
      <g transform="translate(8, 8)" opacity="0.4">
        <rect x="2" y="8" width="16" height="10" rx="2" fill="currentColor"/>
        <circle cx="6" cy="13" r="3" fill="none" stroke="currentColor" stroke-width="1"/>
        <circle cx="14" cy="13" r="3" fill="none" stroke="currentColor" stroke-width="1"/>
        <rect x="18" y="10" width="4" height="6" fill="currentColor"/>
        <circle cx="6" cy="13" r="1" fill="currentColor"/>
        <circle cx="14" cy="13" r="1" fill="currentColor"/>
      </g>
      <!-- Film reel -->
      <g transform="translate(28, 28)" opacity="0.3">
        <circle cx="6" cy="6" r="5" fill="none" stroke="currentColor" stroke-width="1"/>
        <circle cx="6" cy="6" r="2" fill="currentColor"/>
        <circle cx="6" cy="1" r="1" fill="currentColor"/>
        <circle cx="6" cy="11" r="1" fill="currentColor"/>
        <circle cx="1" cy="6" r="1" fill="currentColor"/>
        <circle cx="11" cy="6" r="1" fill="currentColor"/>
      </g>
      <!-- Popcorn -->
      <g transform="translate(8, 28)" opacity="0.35">
        <path d="M3,8 L9,8 L8,18 L4,18 Z" fill="currentColor"/>
        <circle cx="4" cy="6" r="1" fill="currentColor"/>
        <circle cx="6" cy="5" r="1" fill="currentColor"/>
        <circle cx="8" cy="6" r="1" fill="currentColor"/>
        <circle cx="5" cy="4" r="1" fill="currentColor"/>
      </g>
      <!-- Ticket -->
      <g transform="translate(28, 8)" opacity="0.4">
        <rect x="1" y="3" width="10" height="14" rx="1" fill="currentColor"/>
        <circle cx="1" cy="10" r="1.5" fill="white"/>
        <circle cx="11" cy="10" r="1.5" fill="white"/>
        <line x1="3" y1="6" x2="9" y2="6" stroke="white" stroke-width="0.5"/>
        <line x1="3" y1="8" x2="9" y2="8" stroke="white" stroke-width="0.5"/>
        <line x1="3" y1="12" x2="9" y2="12" stroke="white" stroke-width="0.5"/>
        <line x1="3" y1="14" x2="9" y2="14" stroke="white" stroke-width="0.5"/>
      </g>
    </pattern>
  </defs>
  <rect width="80" height="80" fill="url(#movie-icons)"/>
</svg>
